<svg width="5757" height="4163" viewBox="0 0 5757 4163" fill="none" xmlns="http://www.w3.org/2000/svg">
<path d="M2524.43 714.172C2524.43 714.172 2516.98 785.061 2459 789.964C2516.98 794.865 2524.43 865.757 2524.43 865.757C2524.43 865.757 2531.89 794.868 2589.87 789.964C2531.89 785.061 2524.43 714.172 2524.43 714.172Z" fill="url(#paint0_linear_2_446)"/>
<path d="M1181.51 69.104C1181.51 69.104 1171.58 163.526 1094.35 170.057C1171.58 176.589 1181.51 271.01 1181.51 271.01C1181.51 271.01 1191.43 176.589 1268.66 170.057C1191.43 163.526 1181.51 69.104 1181.51 69.104Z" fill="url(#paint1_linear_2_446)"/>
<path d="M3758.15 855.145C3758.15 855.145 3751.58 917.679 3700.43 922.009C3751.58 926.335 3758.15 988.872 3758.15 988.872C3758.15 988.872 3764.73 926.338 3815.88 922.009C3764.73 917.679 3758.15 855.145 3758.15 855.145Z" fill="#B7D972"/>
<path d="M461.926 1776.22C461.926 1776.22 452.002 1870.64 374.771 1877.17C452.002 1883.7 461.926 1978.12 461.926 1978.12C461.926 1978.12 471.853 1883.7 549.081 1877.17C471.85 1870.64 461.926 1776.22 461.926 1776.22Z" fill="url(#paint2_linear_2_446)"/>
<path d="M709.468 954.495C709.468 954.495 702.803 1017.9 650.942 1022.28C702.803 1026.67 709.468 1090.07 709.468 1090.07C709.468 1090.07 716.134 1026.67 767.992 1022.28C716.134 1017.9 709.468 954.495 709.468 954.495Z" fill="#B7D972"/>
<path d="M5375.8 2363.7C5375.8 2363.7 5365.87 2458.12 5288.64 2464.66C5365.87 2471.19 5375.8 2565.61 5375.8 2565.61C5375.8 2565.61 5385.72 2471.19 5462.95 2464.66C5385.72 2458.12 5375.8 2363.7 5375.8 2363.7Z" fill="url(#paint3_linear_2_446)"/>
<path d="M87.1555 1521.43C87.1555 1521.43 77.2314 1615.86 0 1622.39C77.2314 1628.92 87.1555 1723.34 87.1555 1723.34C87.1555 1723.34 97.0823 1628.92 174.311 1622.39C97.0823 1615.86 87.1555 1521.43 87.1555 1521.43Z" fill="url(#paint4_linear_2_446)"/>
<path d="M5669.24 1330.42C5669.24 1330.42 5659.31 1424.84 5582.09 1431.37C5659.31 1437.9 5669.24 1532.32 5669.24 1532.32C5669.24 1532.32 5679.16 1437.9 5756.4 1431.37C5679.16 1424.84 5669.24 1330.42 5669.24 1330.42Z" fill="url(#paint5_linear_2_446)"/>
<path d="M3390.31 170.061C3390.31 170.061 3380.39 264.48 3303.16 271.014C3380.39 277.546 3390.31 371.967 3390.31 371.967C3390.31 371.967 3400.24 277.548 3477.47 271.014C3400.24 264.48 3390.31 170.061 3390.31 170.061Z" fill="url(#paint6_linear_2_446)"/>
<path d="M4827.21 736.901C4827.21 736.901 4821.81 796.519 4779.84 800.645C4821.81 804.77 4827.21 864.388 4827.21 864.388C4827.21 864.388 4832.6 804.767 4874.58 800.645C4832.61 796.519 4827.21 736.901 4827.21 736.901Z" fill="#B7D972"/>
<path d="M4963.32 4100.21H1113.05C1033.69 4100.21 969.354 4038.14 969.354 3961.57V1320.26C969.354 1243.69 1033.69 1181.62 1113.05 1181.62H4963.32C5042.68 1181.62 5107.01 1243.69 5107.01 1320.26V3961.57C5107.01 4038.14 5042.68 4100.21 4963.32 4100.21Z" fill="url(#paint7_linear_2_446)"/>
<path d="M4814.25 3986.28H1122.49C1097.2 3986.28 1076.7 3966.5 1076.7 3942.09V1339.73C1076.7 1315.33 1097.2 1295.55 1122.49 1295.55H4814.25V3986.28H4814.25Z" fill="#D8EAAC"/>
<path d="M4638.6 1652.3H1227.96V3940.15H4638.6V1652.3Z" fill="white"/>
<path d="M1589.56 3431.9L1470.35 3429.82C1428.97 3357.45 1398.6 3294.53 1398.6 3294.53C1533.24 3264.59 1646.86 3276.88 1741.52 3311.99L1793.69 3434.25L1804.85 3340.12C2039.47 3462.26 2136.12 3720.83 2136.12 3720.83C2136.12 3720.83 1721.5 3678.22 1633.6 3638.78C1599.66 3623.55 1556.9 3568.76 1517.18 3507.23C1548.96 3478.04 1589.56 3431.9 1589.56 3431.9Z" fill="url(#paint8_linear_2_446)"/>
<path d="M1398.61 3294.53C1398.61 3294.53 1930.93 3510.65 2136.13 3720.83C2136.13 3720.83 1721.51 3678.22 1633.61 3638.78C1599.67 3623.55 1556.91 3568.76 1517.19 3507.23C1548.97 3478.04 1589.56 3431.9 1589.56 3431.9L1470.36 3429.82C1428.97 3357.45 1398.61 3294.53 1398.61 3294.53Z" fill="url(#paint9_linear_2_446)"/>
<path d="M1415.59 3639.96C1487.27 3597.85 1559.58 3575.32 1629.56 3566.33C1650.07 3590.93 1675.25 3619.87 1675.25 3619.87L1677.9 3562.19C1946.41 3550.39 2168.89 3723.96 2168.89 3723.96C2013.38 3818.52 1880.73 3844.6 1772.06 3836.15C1765.62 3815.96 1756.51 3785.86 1756.51 3785.86L1737.31 3832.2C1685.22 3824.35 1639.26 3808.67 1599.56 3789.51C1609.73 3765.47 1620.44 3737.99 1620.44 3737.99L1562.57 3769.71C1465.59 3712.51 1415.59 3639.96 1415.59 3639.96Z" fill="url(#paint10_linear_2_446)"/>
<path d="M1772.06 3836.15C1765.62 3815.97 1756.51 3785.86 1756.51 3785.86L1737.31 3832.2C1685.22 3824.35 1639.25 3808.67 1599.56 3789.51C1609.72 3765.48 1620.43 3738 1620.43 3738L1562.56 3769.71C1465.59 3712.51 1415.59 3639.96 1415.59 3639.96C1728.43 3605.09 2168.89 3723.96 2168.89 3723.96C2013.38 3818.52 1880.72 3844.6 1772.06 3836.15Z" fill="url(#paint11_linear_2_446)"/>
<path d="M2852.32 3236.58L2437.26 3397.4L1923.47 2163.12L2274.32 2027.18C2309.78 2013.43 2350.08 2030.03 2364.32 2064.25L2852.32 3236.58Z" fill="url(#paint12_linear_2_446)"/>
<path d="M2702.88 2112.13L1908.19 2248.09L2106.33 3326.08L2901.02 3190.12L2702.88 2112.13Z" fill="#DAEDAE"/>
<path d="M2502.15 2256.87L2147.27 2317.59L2148.68 2325.27L2503.56 2264.56L2502.15 2256.87Z" fill="#55769F"/>
<path d="M2573.13 2224.57L2069.15 2310.8L2070.57 2318.48L2574.55 2232.26L2573.13 2224.57Z" fill="#55769F"/>
<path d="M2645.27 2315.6L2033.83 2420.21L2035.24 2427.9L2646.68 2323.29L2645.27 2315.6Z" fill="#55769F"/>
<path d="M2652.07 2352.58L2040.62 2457.19L2042.04 2464.87L2653.48 2360.26L2652.07 2352.58Z" fill="#55769F"/>
<path d="M2665.66 2426.52L2054.22 2531.13L2055.63 2538.81L2667.07 2434.2L2665.66 2426.52Z" fill="#55769F"/>
<path d="M2672.45 2463.49L2061.01 2568.1L2062.42 2575.78L2673.86 2471.17L2672.45 2463.49Z" fill="#55769F"/>
<path d="M2679.24 2500.45L2067.8 2605.06L2069.21 2612.75L2680.66 2508.14L2679.24 2500.45Z" fill="#55769F"/>
<path d="M2708.75 2663.69L2097.31 2768.24L2098.72 2775.93L2710.16 2671.38L2708.75 2663.69Z" fill="#55769F"/>
<path d="M2716.19 2701.37L2104.75 2805.98L2106.16 2813.66L2717.6 2709.05L2716.19 2701.37Z" fill="#55769F"/>
<path d="M2723.24 2739.71L2111.79 2844.32L2113.2 2852L2724.65 2747.39L2723.24 2739.71Z" fill="#55769F"/>
<path d="M2730.26 2778.07L2118.82 2882.68L2120.23 2890.37L2731.68 2785.76L2730.26 2778.07Z" fill="#55769F"/>
<path d="M2737.33 2816.37L2125.88 2920.98L2127.3 2928.67L2738.74 2824.06L2737.33 2816.37Z" fill="#55769F"/>
<path d="M2744.36 2854.74L2132.92 2959.35L2134.33 2967.03L2745.77 2862.42L2744.36 2854.74Z" fill="#55769F"/>
<path d="M2751.41 2893.07L2139.96 2997.68L2141.38 3005.37L2752.82 2900.76L2751.41 2893.07Z" fill="#55769F"/>
<path d="M2588.73 2085.82L1808.16 2284L2096.97 3342.84L2877.54 3144.66L2588.73 2085.82Z" fill="#EDFDFC"/>
<path d="M2402.8 2253.28L2054.24 2341.78L2052.18 2334.23L2400.74 2245.73L2402.8 2253.28Z" fill="url(#paint13_linear_2_446)"/>
<path d="M2470.8 2215.54L1975.8 2341.23L1973.73 2333.68L2468.74 2208L2470.8 2215.54Z" fill="url(#paint14_linear_2_446)"/>
<path d="M2550.42 2300.57L1949.87 2453.05L1947.81 2445.5L2548.37 2293.01L2550.42 2300.57Z" fill="url(#paint15_linear_2_446)"/>
<path d="M2560.33 2336.88L1959.77 2489.36L1957.71 2481.81L2558.27 2329.33L2560.33 2336.88Z" fill="url(#paint16_linear_2_446)"/>
<path d="M2580.14 2409.5L1979.58 2561.98L1977.52 2554.44L2578.08 2401.95L2580.14 2409.5Z" fill="url(#paint17_linear_2_446)"/>
<path d="M2590.04 2445.81L1989.49 2598.29L1987.43 2590.74L2587.98 2438.26L2590.04 2445.81Z" fill="url(#paint18_linear_2_446)"/>
<path d="M2599.95 2482.12L1999.39 2634.61L1997.33 2627.06L2597.89 2474.57L2599.95 2482.12Z" fill="url(#paint19_linear_2_446)"/>
<path d="M2643.51 2641.83L2042.96 2794.31L2040.9 2786.77L2641.45 2634.28L2643.51 2641.83Z" fill="url(#paint20_linear_2_446)"/>
<path d="M2653.78 2679.49L2053.22 2831.97L2051.17 2824.42L2651.73 2671.93L2653.78 2679.49Z" fill="url(#paint21_linear_2_446)"/>
<path d="M2664.06 2717.14L2063.5 2869.62L2061.44 2862.07L2662 2709.59L2664.06 2717.14Z" fill="url(#paint22_linear_2_446)"/>
<path d="M2674.33 2754.79L2073.77 2907.27L2071.71 2899.73L2672.27 2747.24L2674.33 2754.79Z" fill="url(#paint23_linear_2_446)"/>
<path d="M2682.71 2785.07L2082.14 2937.55L2084.2 2945.1L2684.77 2792.62L2682.71 2785.07Z" fill="#55769F"/>
<path d="M2692.98 2822.74L2092.41 2975.22L2094.47 2982.77L2695.04 2830.29L2692.98 2822.74Z" fill="#55769F"/>
<path d="M2703.26 2860.39L2102.68 3012.87L2104.74 3020.42L2705.32 2867.93L2703.26 2860.39Z" fill="#55769F"/>
<path d="M2694.83 3297.6L1859.22 3621.38L1371.85 2450.56L2074.02 2032.66C2113.48 2009.17 2165.36 2025.65 2182.64 2067.16L2694.83 3297.6Z" fill="#B7D972"/>
<path d="M2982.27 2083.87L3078.37 2015.78C3068.87 1933.64 3056.02 1865.35 3056.02 1865.35C2928.17 1915.88 2842.74 1989.19 2786.44 2070.58L2816.99 2199.46L2751.55 2128.81C2633.04 2359.2 2708.81 2624.18 2708.81 2624.18C2708.81 2624.18 3021.89 2358.48 3070.07 2277.33C3088.68 2245.99 3090.82 2177.44 3086.44 2105.08C3043.03 2098.93 2982.27 2083.87 2982.27 2083.87Z" fill="url(#paint24_linear_2_446)"/>
<path d="M3056.02 1865.35C3056.02 1865.35 2750.63 2338.28 2708.81 2624.18C2708.81 2624.18 3021.89 2358.48 3070.07 2277.33C3088.68 2245.99 3090.82 2177.43 3086.44 2105.07C3043.03 2098.94 2982.27 2083.87 2982.27 2083.87L3078.37 2015.78C3068.87 1933.64 3056.02 1865.35 3056.02 1865.35Z" fill="url(#paint25_linear_2_446)"/>
<path d="M3248.82 2156.88C3165.09 2162.41 3092.56 2184.28 3030.04 2215.91C3028.01 2247.42 3024.76 2285.08 3024.76 2285.08L2988.08 2239.45C2761.77 2379.35 2683.93 2644.98 2683.93 2644.98C2867.5 2635.6 2991.42 2583.02 3075.1 2515.6C3068.28 2495.54 3057.72 2465.88 3057.72 2465.88L3101.12 2493.03C3138.95 2457.6 3167.11 2419.21 3188.06 2381.45C3165.38 2367.48 3140.2 2351.01 3140.2 2351.01L3206.43 2344.68C3251.39 2243.97 3248.82 2156.88 3248.82 2156.88Z" fill="url(#paint26_linear_2_446)"/>
<path d="M3075.1 2515.6C3068.28 2495.54 3057.71 2465.88 3057.71 2465.88L3101.11 2493.03C3138.95 2457.61 3167.11 2419.21 3188.06 2381.45C3165.37 2367.48 3140.19 2351.01 3140.19 2351.01L3206.42 2344.68C3251.38 2243.97 3248.81 2156.88 3248.81 2156.88C2972.49 2302.63 2683.92 2644.98 2683.92 2644.98C2867.49 2635.6 2991.42 2583.02 3075.1 2515.6Z" fill="url(#paint27_linear_2_446)"/>
<path d="M4016.97 2493.79H4074.12C4064.77 2487.62 4053.08 2483.93 4040.35 2483.93H2608.83C2533.94 2483.93 2473.22 2535.85 2473.22 2599.9V2673.57C2473.22 2737.62 2533.94 2789.55 2608.83 2789.55L4024.34 2789.14L4016.97 2493.79Z" fill="url(#paint28_linear_2_446)"/>
<path d="M2593.3 2673.57V2599.9C2593.3 2535.85 2654.02 2483.93 2728.91 2483.93H2698.17C2623.27 2483.93 2562.56 2535.85 2562.56 2599.9V2673.57C2562.56 2737.62 2623.27 2789.55 2698.17 2789.55L2728.5 2789.54C2653.8 2789.35 2593.3 2737.51 2593.3 2673.57Z" fill="#FEB546"/>
<path d="M2928.57 2673.57V2599.9C2928.57 2535.85 2989.28 2483.93 3064.18 2483.93H3033.43C2958.54 2483.93 2897.82 2535.85 2897.82 2599.9V2673.57C2897.82 2737.62 2958.54 2789.55 3033.43 2789.55L3063.77 2789.54C2989.06 2789.35 2928.57 2737.51 2928.57 2673.57Z" fill="#FEB546"/>
<path d="M3204.27 2484.2C3132.65 2484.2 3074.59 2533.86 3074.59 2595.12V2678.37C3074.59 2739.62 3132.65 2789.28 3204.27 2789.28H4095.43V2770.66H4091.75L3865.2 2752.31L3819.41 2598.68C3819.41 2598.68 3907.79 2513.78 3913.55 2511.59C3919.32 2509.4 4091.75 2502.76 4091.75 2502.76L4095.44 2502.72V2484.2H3204.27Z" fill="url(#paint29_linear_2_446)"/>
<path d="M4037.63 2636.19C4037.63 2546.36 4091.9 2502.82 4091.9 2502.82H3222.52C3156.73 2502.82 3103.4 2548.43 3103.4 2604.7V2668.78C3103.4 2725.04 3156.73 2770.66 3222.52 2770.66H4091.9C4091.9 2770.66 4037.63 2749.29 4037.63 2636.19Z" fill="#EDFDFC"/>
<path d="M3103.4 2604.7V2668.78C3103.4 2677.2 3104.62 2685.38 3106.87 2693.21C3136.2 2631.86 3192.39 2572.76 3299.37 2553.76C3549.14 2509.39 4091.9 2502.82 4091.9 2502.82H3222.52C3156.73 2502.82 3103.4 2548.43 3103.4 2604.7Z" fill="#DAEEF7"/>
<path d="M3993.41 3104.66H4058.08C4047.5 3096.94 4034.26 3092.32 4019.87 3092.32H2399.66C2314.89 3092.32 2246.18 3157.31 2246.18 3237.49V3329.7C2246.18 3409.87 2314.89 3474.87 2399.66 3474.87L4001.74 3474.35L3993.41 3104.66Z" fill="url(#paint30_linear_2_446)"/>
<path d="M3073.58 3092.66C2992.52 3092.66 2926.81 3154.82 2926.81 3231.49V3335.7C2926.81 3412.37 2992.52 3474.53 3073.58 3474.53H4082.21V3451.22H4078.04L3821.62 3428.25L3769.8 3235.94C3769.8 3235.94 3869.82 3129.68 3876.35 3126.94C3882.87 3124.2 4078.04 3115.88 4078.04 3115.88L4082.21 3115.84V3092.66H3073.58V3092.66Z" fill="url(#paint31_linear_2_446)"/>
<path d="M4016.78 3282.91C4016.78 3170.47 4078.21 3115.97 4078.21 3115.97H3094.24C3019.78 3115.97 2959.42 3173.06 2959.42 3243.49V3323.7C2959.42 3394.12 3019.78 3451.21 3094.24 3451.21H4078.21C4078.21 3451.21 4016.78 3424.48 4016.78 3282.91Z" fill="#EDFDFC"/>
<path d="M2959.42 3243.49V3323.7C2959.42 3334.25 2960.8 3344.48 2963.35 3354.28C2996.54 3277.48 3060.14 3203.52 3181.22 3179.73C3463.91 3124.2 4078.21 3115.97 4078.21 3115.97H3094.24C3019.78 3115.97 2959.42 3173.06 2959.42 3243.49Z" fill="#DAEEF7"/>
<path d="M2192.77 2798.57H2128.08C2138.66 2792.44 2151.9 2788.78 2166.31 2788.78H3787.15C3871.95 2788.78 3940.69 2840.35 3940.69 2903.96V2977.13C3940.69 3040.75 3871.95 3092.32 3787.15 3092.32L2184.43 3091.91L2192.77 2798.57Z" fill="url(#paint32_linear_2_446)"/>
<path d="M3112.96 2789.05C3194.06 2789.05 3259.8 2838.37 3259.8 2899.21V2981.9C3259.8 3042.74 3194.06 3092.06 3112.96 3092.06H2103.94V3073.56H2108.12L2364.63 3055.33L2416.48 2902.74C2416.48 2902.74 2316.41 2818.42 2309.88 2816.25C2303.36 2814.08 2108.12 2807.48 2108.12 2807.48L2103.94 2807.45V2789.05H3112.96Z" fill="url(#paint33_linear_2_446)"/>
<path d="M2169.39 2940.01C2169.39 2850.79 2107.94 2807.54 2107.94 2807.54H3092.3C3166.78 2807.54 3227.17 2852.84 3227.17 2908.73V2972.37C3227.17 3028.26 3166.79 3073.56 3092.3 3073.56H2107.94C2107.94 3073.56 2169.39 3052.34 2169.39 2940.01Z" fill="#EDFDFC"/>
<path d="M3227.17 2908.73V2972.37C3227.17 2980.74 3225.79 2988.86 3223.23 2996.64C3190.03 2935.7 3126.4 2877.01 3005.28 2858.13C2722.48 2814.07 2107.93 2807.54 2107.93 2807.54H3092.29C3166.78 2807.54 3227.17 2852.84 3227.17 2908.73Z" fill="#DAEEF7"/>
<path opacity="0.5" d="M3643.76 2977.13V2903.96C3643.76 2840.35 3575.02 2788.78 3490.22 2788.78H3644.13C3728.93 2788.78 3797.68 2840.35 3797.68 2903.96V2977.13C3797.68 3040.75 3728.93 3092.32 3644.13 3092.32L3492.25 3092.28C3576.11 3091.46 3643.76 3040.23 3643.76 2977.13Z" fill="#B7D972"/>
<path d="M2070.41 3486.59H2000.66C2012.07 3479.75 2026.34 3475.65 2041.87 3475.65H3789.17C3880.59 3475.65 3954.7 3533.27 3954.7 3604.35V3686.1C3954.7 3757.18 3880.59 3814.8 3789.17 3814.8L2061.42 3814.34L2070.41 3486.59Z" fill="url(#paint34_linear_2_446)"/>
<path d="M3062.39 3475.95C3149.81 3475.95 3220.68 3531.06 3220.68 3599.03V3691.42C3220.68 3759.39 3149.81 3814.5 3062.39 3814.5H1974.65V3793.84H1979.14L2255.67 3773.47L2311.56 3602.99C2311.56 3602.99 2203.68 3508.78 2196.65 3506.35C2189.61 3503.92 1979.14 3496.55 1979.14 3496.55L1974.65 3496.51V3475.96H3062.39V3475.95Z" fill="url(#paint35_linear_2_446)"/>
<path d="M2045.2 3644.62C2045.2 3544.94 1978.95 3496.62 1978.95 3496.62H3040.11C3120.41 3496.62 3185.51 3547.23 3185.51 3609.67V3680.78C3185.51 3743.22 3120.41 3793.83 3040.11 3793.83H1978.95C1978.95 3793.83 2045.2 3770.13 2045.2 3644.62Z" fill="#EDFDFC"/>
<path d="M3185.5 3609.67V3680.79C3185.5 3690.13 3184.02 3699.21 3181.26 3707.9C3145.47 3639.82 3076.88 3574.23 2946.3 3553.15C2641.44 3503.92 1978.95 3496.63 1978.95 3496.63H3040.11C3120.41 3496.62 3185.5 3547.24 3185.5 3609.67Z" fill="#DAEEF7"/>
<path d="M3679.63 3750.47H4415.78V3711.09H3679.63V3750.47Z" fill="#D8EAAC"/>
<path d="M4395.25 3406.35L4406.41 3455.87C4410.69 3474.88 4398.13 3493.61 4378.41 3497.63L3720.97 3631.48C3700.8 3635.59 3681.14 3622.7 3677.66 3603.1L3671.88 3570.57C3669.25 3555.78 3676.67 3541.02 3690.33 3533.85L3887.23 3430.54C3891.4 3428.35 3895.97 3426.97 3900.69 3426.48L4351.69 3379.46L4354.94 3379.05C4373.69 3376.63 4391.23 3388.51 4395.25 3406.35Z" fill="#D8EAAC"/>
<path d="M3730.32 3553.55C3730.32 3553.55 3636.43 3619.52 3704.8 3728.32L3700.72 3756.38L3580.3 3764.26L3470.08 3742.59L3449.67 3565.36L3713.99 3489.55L3730.32 3553.55Z" fill="url(#paint36_linear_2_446)"/>
<path d="M3454.94 3814.8H4477.18C4486.86 3814.8 4494.7 3807.23 4494.7 3797.9V3745.22C4494.7 3735.89 4486.86 3728.32 4477.18 3728.32H3454.94C3445.26 3728.32 3437.42 3735.89 3437.42 3745.22V3797.9C3437.42 3807.23 3445.26 3814.8 3454.94 3814.8Z" fill="url(#paint37_linear_2_446)"/>
<path d="M4471.09 3394.97L3719.7 3565.91C3713.69 3567.28 3707.42 3567.1 3701.48 3565.45C3671.92 3557.26 3571.68 3536.83 3487.33 3606.29C3467.42 3622.69 3436.67 3613.97 3429.5 3589.68L3416.06 3544.08C3411.7 3529.31 3417.99 3513.54 3431.49 3505.39C3540.58 3439.53 4018.18 3163.7 4332.59 3184.69C4362.23 3186.67 4388.96 3202.61 4404.07 3227.3L4485.99 3361.24C4494.08 3374.46 4486.57 3391.45 4471.09 3394.97Z" fill="url(#paint38_linear_2_446)"/>
<path d="M3540.83 3659.04C3540.83 3682.96 3560.94 3702.36 3585.74 3702.36C3610.54 3702.36 3630.64 3682.96 3630.64 3659.04C3630.64 3635.11 3610.54 3615.71 3585.74 3615.71C3560.94 3615.71 3540.83 3635.11 3540.83 3659.04Z" fill="#847D3D"/>
<path d="M1519.9 2579.82L2088.81 2265.88L2165.71 2412.83L1583.58 2709.96L1519.9 2579.82Z" fill="url(#paint39_linear_2_446)"/>
<path d="M4638.6 1715.07V1545.6C4638.6 1487.53 4589.81 1440.46 4529.62 1440.46H1336.93C1276.75 1440.46 1227.96 1487.53 1227.96 1545.6V1715.07H4638.6Z" fill="url(#paint40_linear_2_446)"/>
<path d="M4431.98 1644.46H3084.33C3051.06 1644.46 3024.09 1618.44 3024.09 1586.34V1569.2C3024.09 1537.1 3051.06 1511.08 3084.33 1511.08H4431.98C4465.25 1511.08 4492.22 1537.1 4492.22 1569.2V1586.34C4492.22 1618.44 4465.25 1644.46 4431.98 1644.46Z" fill="white"/>
<path d="M1509.74 1577.77C1509.74 1609.76 1482.85 1635.7 1449.69 1635.7C1416.53 1635.7 1389.65 1609.76 1389.65 1577.77C1389.65 1545.77 1416.53 1519.84 1449.69 1519.84C1482.85 1519.84 1509.74 1545.77 1509.74 1577.77Z" fill="white"/>
<path d="M1713.98 1635.41C1747.12 1634.42 1773.15 1607.68 1772.12 1575.71C1771.08 1543.73 1743.38 1518.61 1710.23 1519.61C1677.09 1520.61 1651.06 1547.34 1652.1 1579.32C1653.13 1611.3 1680.84 1636.41 1713.98 1635.41Z" fill="white"/>
<path d="M2034.53 1577.77C2034.53 1609.76 2007.65 1635.7 1974.49 1635.7C1941.33 1635.7 1914.45 1609.76 1914.45 1577.77C1914.45 1545.77 1941.33 1519.84 1974.49 1519.84C2007.65 1519.84 2034.53 1545.77 2034.53 1577.77Z" fill="white"/>
<path d="M1441.4 2740.93C1446.65 2736.63 1451.48 2733.22 1451.48 2733.22C1501.31 2684.63 1499.93 2683.51 1498.39 2681.48C1496.86 2679.44 1470.47 2693.74 1469.69 2690.91C1468.91 2688.09 1496.9 2658.4 1493.24 2657.84C1489.59 2657.28 1460.29 2681.66 1459.06 2679.67C1457.83 2677.67 1485.27 2649.41 1481.14 2646.07C1477.01 2642.73 1448.03 2674.67 1445.87 2670.73C1443.71 2666.8 1474.27 2634.8 1469.99 2632.34C1466.39 2630.28 1431.31 2665.26 1420.24 2676.45C1418.81 2677.9 1416.29 2677.21 1415.82 2675.27C1408.6 2645.34 1406.23 2643.43 1403 2644.94C1400.7 2646.02 1394.34 2686.58 1390.5 2712.48L1441.38 2741C1441.38 2740.98 1441.4 2740.95 1441.4 2740.93Z" fill="#FFC0BB"/>
<path d="M1032.75 2687.41C992.725 2609.41 901.118 2630.78 897.247 2631.73L893.286 2616.82C894.366 2616.56 1001.25 2591.3 1047.07 2680.59L1032.75 2687.41Z" fill="#B7D972"/>
<path d="M870.403 2710.35C870.403 2710.35 853.626 2653.37 1042.09 2661.92C1060.41 2662.75 1086.16 2676.52 1095.04 2691.97L1136.25 2763.62C1136.25 2763.62 995.457 2813.77 978.891 2795.25C962.325 2776.73 870.403 2710.35 870.403 2710.35Z" fill="#473B1E"/>
<path d="M769.707 2697.64C769.707 2697.64 826.85 2686.1 933.157 2693.37C1039.47 2700.64 883.983 2758.33 883.983 2758.33C883.983 2758.33 829.418 2756.62 827.07 2756.19C824.725 2755.77 769.707 2697.64 769.707 2697.64Z" fill="#FFC0BB"/>
<path d="M904.908 2639.8H810.527V2799.36H904.908V2639.8Z" fill="#FFC0BB"/>
<path d="M1163.45 2892.53C1163.45 2892.53 1218.46 3145.54 1202.49 3172.9C1186.52 3200.25 977.096 3208.79 977.096 3208.79L968.223 2883.98L1048.08 2767.73L1163.45 2892.53Z" fill="#473B1E"/>
<path d="M1097.5 3649.09L1093.19 4022.49L1068.51 4080.58L1006.28 4022.49L937.354 3649.54L1097.5 3649.09Z" fill="#FFC0BB"/>
<path d="M669.879 3655.84L643.862 4022.49L669.022 4077.3L726.545 4044.28L799.066 3649.54L669.879 3655.84Z" fill="#FFC0BB"/>
<path d="M661.272 3249L629.277 3929.6C629.277 3929.6 698.599 3965.55 773.253 3934.73L834.577 3408.23L887.902 3400.53L967.888 3921.89C967.888 3921.89 1031.88 3968.12 1122.53 3929.6L1058.54 3231.02L661.272 3249Z" fill="#473B1E"/>
<path d="M1233.19 2803.4L1298.51 2830.36L1391.16 2711.89L1442.78 2738.1L1378.48 2876.82C1364.26 2914 1326.33 2937.74 1285.28 2935.14L1171.87 2927.96L1233.19 2803.4Z" fill="#FFC0BB"/>
<path d="M962.71 3276.94C962.71 3276.94 992.193 3408.72 1075.06 3411.33L1062.75 3276.94H962.71Z" fill="#847D3D"/>
<path d="M766.057 3276.94C766.057 3276.94 736.573 3408.72 653.706 3411.33L654.331 3396.72L766.057 3276.94Z" fill="#847D3D"/>
<path d="M904.75 2667.07V2612.65H810.527V2658.94C830.813 2669.44 860.847 2675.49 904.75 2667.07Z" fill="#F99893"/>
<path d="M1053.31 2450.2C1043.48 2445.52 1032.07 2446.36 1021.74 2451.4C1025.29 2361.84 949.468 2286.51 853.969 2289.7C758.47 2286.51 682.646 2361.84 686.193 2451.4C675.864 2446.36 664.453 2445.52 654.621 2450.2C635.758 2459.16 629.899 2484.83 641.528 2507.55C653.16 2530.25 677.876 2541.4 696.739 2532.44C699.358 2531.2 701.7 2529.6 703.806 2527.77C714.614 2601.81 778.734 2657.31 853.969 2656.28C929.204 2657.32 993.324 2601.81 1004.13 2527.77C1006.24 2529.61 1008.58 2531.2 1011.2 2532.44C1030.06 2541.4 1054.78 2530.25 1066.41 2507.55C1078.04 2484.83 1072.18 2459.16 1053.31 2450.2Z" fill="#FFC0BB"/>
<path d="M811.581 2483.22C812.006 2490.72 806.037 2497.14 798.247 2497.55C790.459 2497.96 783.797 2492.21 783.371 2484.71C782.943 2477.2 788.915 2470.79 796.702 2470.37C804.493 2469.97 811.155 2475.71 811.581 2483.22Z" fill="#333333"/>
<path d="M933.136 2484.48C933.564 2491.98 927.595 2498.4 919.805 2498.81C912.014 2499.22 905.354 2493.47 904.929 2485.97C904.5 2478.47 910.473 2472.05 918.26 2471.64C926.05 2471.22 932.71 2476.98 933.136 2484.48Z" fill="#333333"/>
<path d="M827.071 2455.37C820.004 2453.01 813.285 2451.16 806.581 2450.02C799.891 2448.87 793.288 2448.57 786.834 2449.24C780.418 2449.98 773.961 2451.25 767.78 2453.93L765.382 2454.79C764.584 2455.09 763.867 2455.54 763.076 2455.88L758.353 2458.08C755.181 2459.62 752.235 2461.56 748.721 2463.08C750.61 2460.01 752.762 2456.99 755.25 2454.24C758.011 2451.82 760.558 2448.92 763.93 2447.07C770.203 2442.67 777.993 2440.21 785.822 2439.38C793.698 2438.57 801.721 2439.76 808.854 2442.57C815.936 2445.44 822.447 2449.61 827.071 2455.37Z" fill="url(#paint41_linear_2_446)"/>
<path d="M883.984 2455.17C888.564 2449.36 895.039 2445.15 902.1 2442.23C909.209 2439.37 917.223 2438.12 925.108 2438.87C932.94 2439.65 940.752 2442.05 947.057 2446.4C950.444 2448.22 953.012 2451.1 955.794 2453.51C958.302 2456.24 960.478 2459.25 962.391 2462.3C958.865 2460.81 955.904 2458.89 952.72 2457.38L947.98 2455.21C947.185 2454.88 946.465 2454.43 945.665 2454.14L943.261 2453.29C937.059 2450.66 930.593 2449.44 924.171 2448.74C917.714 2448.12 911.111 2448.47 904.433 2449.67C897.738 2450.85 891.034 2452.75 883.984 2455.17Z" fill="url(#paint42_linear_2_446)"/>
<path d="M860.955 2464.61C860.255 2471.75 860.773 2478.9 862.163 2485.99C862.868 2489.54 863.859 2493.05 865.281 2496.55C866.775 2500.01 868.59 2503.51 871.878 2506.53C875.533 2509.29 877.226 2510.06 878.339 2512.68C879.446 2514.91 878.955 2517.72 877.77 2520.42C875.128 2525.91 869.081 2530.02 862.448 2533.05C869.742 2532.71 877.788 2529.91 882.558 2523.04C884.894 2519.71 886.156 2515 884.65 2510.56C883.076 2505.89 880.335 2504.34 876.628 2501.49C874.58 2499.69 872.887 2496.86 871.384 2493.97C869.807 2491.06 868.733 2487.81 867.462 2484.62C865.165 2478.14 863.157 2471.43 860.955 2464.61Z" fill="#F99893"/>
<path d="M770.592 2691.68L678.265 2707.07C648.555 2712.02 622.009 2727.91 604.235 2751.37L487.969 2904.85L645.279 2989.6L623.949 3284.96C623.949 3284.96 909.236 3354.3 1082.54 3279.82L1058.54 2874.03L1167.86 2971.63C1167.86 2971.63 1258.51 2871.46 1266.51 2802.12L1063.87 2701.95L930.563 2689.11C930.563 2689.11 853.245 2771.3 770.592 2691.68Z" fill="url(#paint43_linear_2_446)"/>
<path opacity="0.5" d="M623.95 3284.95L645.28 2989.6L662.188 2897.09L688.198 2719.58L769.709 2711.89C769.709 2711.89 846.45 2784.06 937.866 2711.89L1035.76 2730.47L1064.63 2976.85L1082.55 3279.82C1082.54 3279.81 957.979 3354.1 623.95 3284.95Z" fill="url(#paint44_linear_2_446)"/>
<path d="M645.278 2989.6C646.549 2973.92 649.013 2958.44 651.766 2943.01C654.64 2927.6 657.812 2912.25 662.183 2897.09C660.922 2912.77 658.458 2928.25 655.693 2943.68C652.813 2959.09 649.641 2974.45 645.278 2989.6Z" fill="#DAEEF7"/>
<path d="M770.286 3129.5C770.286 3129.5 788.685 3126.55 798.835 3139.57L798.127 3173.09L775.637 3183.18C775.637 3183.18 747.793 3160.35 749.888 3159.76C751.98 3159.18 770.286 3129.5 770.286 3129.5Z" fill="url(#paint45_linear_2_446)"/>
<path d="M827.542 3348.45L531.329 3431L502.622 3222.11L798.836 3139.57L827.542 3348.45Z" fill="url(#paint46_linear_2_446)"/>
<path d="M506.865 3397.39L532.882 3418.55L816.386 3340.27L790.914 3143.41L770.905 3135.33L506.865 3397.39Z" fill="#DAEEF7"/>
<path d="M816.385 3340.27L796.171 3323.32L759.18 3284.19L761.429 3176.49L770.904 3135.33L791.002 3143.09L816.385 3340.27Z" fill="#DAEEF7"/>
<path d="M796.171 3323.32L499.961 3405.86L474.072 3212.04L770.286 3129.5L796.171 3323.32Z" fill="url(#paint47_linear_2_446)"/>
<path d="M654.303 3274.87C686.146 3276.65 688.72 3274.99 688.125 3271.59C687.699 3269.17 649.456 3251.99 624.736 3241.12C545.785 3112.37 636.154 2942.68 636.154 2942.68L543.958 2892.86C414.202 3096.61 581.434 3280.31 581.434 3280.31L581.719 3280.06C584.493 3286.08 586.514 3291.46 586.514 3291.46C620.838 3351.23 622.335 3350.27 624.799 3349.43C627.263 3348.58 620.472 3320.16 623.504 3320.24C626.539 3320.31 648.203 3354.56 649.792 3351.34C651.381 3348.12 635.375 3314.16 637.707 3313.59C640.04 3313.01 660.442 3346.35 664.932 3343.48C669.422 3340.6 645.795 3304.8 650.327 3303.92C654.856 3303.04 678.103 3340.3 681.757 3337.05C684.828 3334.31 659.888 3292.01 651.872 3278.62C650.839 3276.89 652.235 3274.76 654.303 3274.87Z" fill="#FFC0BB"/>
<path d="M487.969 2904.85C487.969 2904.85 564.477 2986.37 645.279 2989.6C645.279 2989.6 650.948 2931.28 649.764 2929.57C648.582 2927.86 629.059 2886.83 614.269 2881.13C599.48 2875.44 534.405 2865.75 534.405 2865.75L487.969 2904.85Z" fill="url(#paint48_linear_2_446)"/>
<path d="M1064.36 2702.52C1068.31 2956.63 1171.24 3002.79 1172.13 3004.5L1176.57 3062.63C1176.57 3062.63 977.799 3005.36 998.584 2696.93C999.167 2688.26 1006.78 2681.65 1015.7 2682.93L1051.67 2688.1C1059.07 2689.17 1064.25 2695.32 1064.36 2702.52Z" fill="#B7D972"/>
<path d="M814.653 2549.9C822.86 2555.36 832.097 2559.67 839.661 2562.2C848.46 2565.13 857.646 2566.96 866.883 2566.97C876.119 2567.03 885.287 2565.19 893.905 2561.86C902.481 2558.41 910.432 2553.48 917.809 2547.77C909.875 2555.82 903.18 2560.08 894.929 2564.1C890.569 2566.06 885.993 2567.61 881.273 2568.64C876.545 2569.61 871.709 2570.11 866.871 2570.15C857.191 2570.06 847.591 2568.05 838.756 2564.47C829.931 2560.9 821.625 2556.11 814.653 2549.9Z" fill="#F99893"/>
<path d="M730.772 4022.49V4086.93C730.772 4092.25 726.294 4096.56 720.768 4096.56H564.139C552.804 4096.56 548.487 4082.3 558.045 4076.43L643.858 4022.48C643.858 4022.48 680.387 4046.76 730.772 4022.49Z" fill="url(#paint49_linear_2_446)"/>
<path d="M1006.27 4022.49V4086.93C1006.27 4092.25 1010.75 4096.56 1016.28 4096.56H1172.91C1184.24 4096.56 1188.56 4082.3 1179 4076.43L1093.19 4022.48C1093.19 4022.48 1056.65 4046.76 1006.27 4022.49Z" fill="url(#paint50_linear_2_446)"/>
<path d="M997.06 2396.51L1013.35 2489.59C1031.07 2430.12 1025.92 2388.58 1023.58 2375.86C1023.16 2373.61 1022.83 2371.35 1022.53 2369.08C1019.37 2345.42 975.939 2323.23 975.939 2323.23C1005.01 2299.33 998.691 2250.05 998.691 2250.05C988.58 2281.41 954.448 2291.86 954.448 2291.86C979.73 2236.61 965.824 2205.25 965.824 2205.25C962.033 2239.6 898.826 2251.54 898.826 2251.54C905.147 2226.16 910.203 2205.25 910.203 2205.25C898.827 2221.68 857.11 2259.01 788.847 2262C720.585 2264.99 713.003 2329.2 713.003 2329.2C665.612 2363.19 678.842 2445.37 692.765 2495.98L706.489 2417.4C706.905 2413.69 707.387 2410.15 707.947 2406.85C708.34 2404.52 708.878 2402.32 709.497 2400.17L709.533 2399.97L709.551 2399.98C720.945 2360.98 767.36 2351.6 767.36 2351.6C853.319 2394.9 943.069 2350.1 943.069 2350.1C987.318 2366.53 997.06 2396.51 997.06 2396.51Z" fill="url(#paint51_linear_2_446)"/>
<path d="M5630.41 4162.36H51.895C36.46 4162.36 23.9502 4150.29 23.9502 4135.4V4127.17C23.9502 4112.28 36.463 4100.21 51.895 4100.21H5630.41C5645.84 4100.21 5658.36 4112.28 5658.36 4127.17V4135.4C5658.36 4150.28 5645.84 4162.36 5630.41 4162.36Z" fill="url(#paint52_linear_2_446)"/>
<path d="M1453.11 1588.72L1477.1 1640.34C1479.08 1644.61 1477.1 1649.61 1472.68 1651.52L1347.38 1705.71C1338.32 1709.64 1329.56 1699.71 1335.02 1691.7L1383.51 1618.81C1383.51 1618.81 1421.84 1625.59 1453.11 1588.72Z" fill="#002A24"/>
<path d="M1612.29 1588.72L1636.28 1640.34C1638.27 1644.61 1636.29 1649.61 1631.87 1651.52L1506.57 1705.71C1497.51 1709.64 1488.75 1699.71 1494.21 1691.7L1542.7 1618.81C1542.7 1618.81 1581.03 1625.59 1612.29 1588.72Z" fill="#002A24"/>
<path d="M1882.94 165.394L1896.26 246.015L1924.41 138.528C1924.41 138.528 1884.96 120.059 1883.22 126.774C1881.48 133.489 1882.94 165.394 1882.94 165.394Z" fill="#473B1E"/>
<path d="M2106.87 338.912L2119.05 478.284L1991.58 472.41L2006.27 348.986L2106.87 338.912Z" fill="#FFC0BB"/>
<path d="M1999.29 407.685L2006.28 348.989L2106.87 338.915L2111.09 387.181C2091.09 406.404 2055.12 426.337 1999.29 407.685Z" fill="#F99893"/>
<path d="M1921.12 245.004C1928.78 260.297 1924.72 277.494 1912.04 283.408C1899.35 289.325 1882.86 281.72 1875.2 266.427C1867.53 251.134 1871.59 233.94 1884.28 228.023C1896.96 222.108 1913.45 229.708 1921.12 245.004Z" fill="#F99893"/>
<path d="M1902.62 256.205C1901.95 252.22 1901.04 248.276 1900.06 244.348C1896.09 228.486 1895.04 211.482 1897.79 193.76C1906.66 136.729 1954.21 91.2647 2013.42 83.3668C2093.18 72.7271 2163.44 129.706 2168.41 205.172C2176.61 200.09 2186.09 198.453 2194.74 201.563C2211.33 207.526 2218.51 228.581 2210.78 248.586C2203.05 268.593 2183.34 279.973 2166.75 274.011C2164.45 273.181 2162.35 272.035 2160.42 270.669C2157.86 335.293 2106.59 388.196 2041.12 391.159C2009.1 392.603 1979.31 381.834 1956.18 362.975C1924.74 340.682 1908.84 293.358 1902.62 256.205Z" fill="#FFC0BB"/>
<path d="M2001.92 214.066C2001.65 221.594 2001.59 228.946 2001.19 236.144C2000.71 243.18 1999.91 250.711 1996.99 255.672C1994.01 259.677 1991.66 262.252 1991.58 267.181C1991.41 272.162 1994.13 276.618 1997.53 279.345C2004.49 284.992 2013.51 285.529 2020.97 283.752C2013.36 282.457 2006.05 279.931 2001.81 275.134C1999.84 272.748 1998.54 270.081 1998.99 267.586C1999.31 264.827 2000.19 264.261 2003.64 259.642C2006.09 255.626 2006.87 251.558 2007.33 247.624C2007.71 243.674 2007.66 239.841 2007.28 236.037C2006.52 228.47 2004.85 221.08 2001.92 214.066Z" fill="#F99893"/>
<path d="M2047.16 222.177C2046.29 229.991 2053.44 236.279 2061.42 234.714C2066.39 233.741 2070.28 229.609 2070.8 224.749C2071.64 216.96 2064.52 210.707 2056.56 212.246C2051.6 213.199 2047.7 217.319 2047.16 222.177Z" fill="#333333"/>
<path d="M1945.47 233.278C1944.63 241.069 1951.75 247.322 1959.71 245.783C1964.67 244.824 1968.57 240.707 1969.11 235.85C1969.98 228.044 1962.84 221.754 1954.85 223.313C1949.89 224.283 1946 228.417 1945.47 233.278Z" fill="#333333"/>
<path d="M2067.04 301.686C2063.92 304.307 2060.67 306.738 2057.22 308.883C2053.83 311.094 2050.3 313.095 2046.63 314.8C2039.31 318.211 2031.55 320.703 2023.56 321.641C2015.57 322.612 2007.43 321.94 1999.6 319.939C1991.8 317.823 1984.36 314.358 1977.32 310.172C1984.97 316.376 1991.28 319.46 1998.9 322.152C2006.92 324.731 2014.93 325.603 2023.94 324.63C2032.35 323.576 2040.47 320.86 2047.75 316.847C2055.02 312.833 2061.7 307.815 2067.04 301.686Z" fill="#F99893"/>
<path d="M2032.18 198.113C2038.23 196.305 2043.92 194.932 2049.56 194.088C2055.19 193.253 2060.7 193.106 2066.08 193.738C2071.42 194.427 2076.8 195.535 2081.96 197.8C2085.92 198.992 2095.53 204.441 2098.03 205.497C2095.09 200.284 2090.83 194.7 2085.55 191.599C2080.33 187.761 2073.76 185.562 2067.13 184.761C2060.46 183.988 2053.64 184.93 2047.59 187.27C2041.57 189.653 2036.06 193.195 2032.18 198.113Z" fill="#473B1E"/>
<path d="M1979.8 203.802C1975 199.708 1968.88 197.265 1962.49 196.053C1956.09 194.89 1949.21 195.244 1942.83 197.25C1936.48 199.277 1930.48 202.671 1926.13 207.413C1921.58 211.436 1918.51 217.723 1916.69 223.381C1918.96 221.854 1927.27 214.72 1930.9 212.822C1935.51 209.633 1940.56 207.537 1945.66 205.857C1950.81 204.235 1956.25 203.345 1961.94 203.11C1967.63 202.886 1973.5 203.164 1979.8 203.802Z" fill="#473B1E"/>
<path d="M2036.67 992.692C2036.67 992.692 2063.25 1166.68 1889.02 1196.99C1714.78 1227.3 1497.98 1218.26 1497.98 1218.26L1467.82 1617.91L1376.85 1622.39C1376.85 1622.39 1142.63 1067.1 1466.83 980.29L1758.18 981.668L1878.15 973.4C1878.15 973.4 1999.54 944.466 2000.97 949.976C2002.4 955.488 2033.81 995.448 2036.67 992.692Z" fill="#473B1E"/>
<path d="M2196.8 993.608C2196.8 993.608 2223.38 1167.59 2049.15 1197.91C1874.91 1228.22 1658.12 1219.18 1658.12 1219.18L1627.95 1618.83L1536.99 1623.31C1536.99 1623.31 1302.77 1068.02 1626.96 981.215L1918.31 982.592L2038.27 974.324C2038.27 974.324 2159.67 945.388 2161.1 950.9C2162.53 956.407 2193.94 996.364 2196.8 993.608Z" fill="#847D3D"/>
<path d="M1977.34 422.706C1977.34 422.706 1857.37 437.402 1826.9 461.285C1796.43 485.168 1649.81 836.067 1649.81 836.067L1771.68 973.857L2030.66 975.695C2030.66 975.695 2224.89 1076.74 2346.76 981.207C2468.63 885.671 2405.79 553.14 2335.33 481.491C2264.88 409.841 2139.2 411.681 2139.2 411.681C2139.2 411.681 2024.94 488.843 1977.34 422.706Z" fill="url(#paint53_linear_2_446)"/>
<path d="M2209.65 597.241C2205.36 616.364 2202.74 635.78 2200.87 655.256C2199.83 664.992 2199.39 674.767 2198.81 684.543C2198.5 694.33 2198.26 704.12 2198.4 713.924C2198.8 733.509 2199.92 753.163 2203.41 772.565C2206.81 791.884 2211.77 811.268 2221.08 828.732C2214.81 810.105 2211.71 790.965 2209.46 771.77C2207.25 752.561 2206.49 733.185 2206.23 713.823C2205.82 694.45 2206.31 675.043 2206.94 655.621C2207.65 636.193 2208.57 616.757 2209.65 597.241Z" fill="white"/>
<path d="M1850.71 584.381C1845.23 612.84 1839.42 641.194 1833.52 669.507C1827.5 697.788 1821.27 726.012 1814.17 754.018C1807.15 782.035 1799.36 809.866 1789.93 837.154C1785.21 850.794 1779.93 864.25 1773.75 877.313C1767.65 890.404 1760.42 903.076 1750.73 914.158C1761.75 904.228 1769.86 891.644 1777.18 878.966C1784.28 866.107 1790.41 852.761 1795.68 839.15C1801.07 825.567 1805.7 811.726 1810.08 797.84C1814.3 783.907 1818.17 769.88 1821.78 755.804C1825.21 741.685 1828.52 727.54 1831.48 713.331C1834.34 699.106 1837.15 684.872 1839.51 670.566C1844.41 641.989 1848.22 613.239 1850.71 584.381Z" fill="white"/>
<path d="M1790.42 894.448C1791.18 888.631 1836.95 882.137 1853.77 881.296C1866.52 880.662 1951.01 877.937 1979.75 876.685L1977.64 883.817L1978.07 915.302L1982.79 936.165C1957.58 937.707 1895.94 940.032 1883.11 942.484C1865.96 945.757 1836.22 958.225 1836.22 958.225C1836.22 958.225 1823.85 955.512 1839.57 948.972C1852.19 943.716 1861.04 935.577 1864.79 931.531C1866.95 929.209 1864.61 925.06 1863.04 925.457C1820.25 936.277 1815.85 938.066 1815.85 938.066C1815.85 938.066 1765.55 937.793 1815.56 926.889C1845.54 920.352 1856.28 916.551 1858.95 913.307C1860.09 911.929 1858.06 907.226 1856.23 907.117C1830.26 905.573 1783.65 914.452 1796.42 908.627C1806.83 903.876 1839.62 898.671 1852.38 896.707C1853.16 896.589 1854.42 892.005 1850.94 891.723C1826.2 889.731 1789.71 899.851 1790.42 894.448Z" fill="#FFC0BB"/>
<path d="M2238.93 823.901C2228.4 826.373 2218.02 829.215 2207.44 831.345C2196.94 833.76 2186.28 835.525 2175.74 837.667C2154.51 841.402 2133.21 844.655 2111.86 847.546C2090.47 850.253 2069.06 852.745 2047.59 854.743C2026.21 856.793 2004.46 858.547 1983.29 859.69L1980.44 859.842L1979.81 862.222C1978 869.147 1976.81 875.905 1975.91 882.827C1975.01 889.726 1974.63 896.679 1974.64 903.641C1974.71 910.603 1975.32 917.573 1976.51 924.469C1977.83 931.354 1979.94 938.098 1982.78 944.56L1983.03 945.123L1983.49 945.419L2007.01 960.643C2014.85 965.719 2022.71 970.76 2030.65 975.698C2023.28 969.997 2015.84 964.395 2008.36 958.834L1985.94 942.14L1986.65 942.993C1984.29 936.751 1982.63 930.286 1981.72 923.677C1980.89 917.062 1980.51 910.385 1980.71 903.693C1980.94 897.003 1981.63 890.328 1982.6 883.691C1983.6 877.09 1984.96 870.393 1986.76 864.117L1983.29 866.652C1994.47 866.368 2005.07 865.673 2015.95 864.909C2026.77 864.14 2037.58 863.31 2048.36 862.213C2069.93 860.066 2091.45 857.471 2112.87 854.169C2134.28 850.836 2155.58 846.802 2176.69 841.991C2187.21 839.401 2197.73 836.901 2208.08 833.751C2218.52 830.926 2228.74 827.401 2238.93 823.901Z" fill="white"/>
<path d="M1248.67 660.617H1717.11L1849.93 973.399H2075.58C2081.89 973.399 2087.01 978.337 2087.01 984.42C2087.01 990.51 2081.89 995.445 2075.58 995.445H1404.34L1248.67 660.617Z" fill="#002A24"/>
<path d="M1480.94 839.107C1483.71 852.437 1495.75 861.351 1507.85 859.017C1519.94 856.68 1527.5 843.985 1524.73 830.652C1521.97 817.323 1509.93 808.409 1497.83 810.74C1485.74 813.077 1478.18 825.775 1480.94 839.107Z" fill="#DAEEF7"/>
<path d="M1880.38 89.119C1880.38 89.119 1840.38 90.3593 1882.36 57.7312C1924.33 25.1032 2037.01 -13.1577 2109.24 23.6418C2109.24 23.6418 2123.68 -5.98032 2144.56 1.09077C2165.44 8.16472 2130.98 28.5454 2130.98 28.5454C2130.98 28.5454 2157.64 27.7185 2165.78 40.3362C2171.79 49.6639 2155.47 50.0715 2146.54 49.6524C2161.72 52.1415 2219.91 87.6002 2190.7 200.795C2180.32 198.593 2121.17 115.842 2121.17 115.842C2121.17 115.842 1985.9 188.347 1999.28 130.693C1999.28 130.693 1859.14 215.072 1879.02 145.372C1879.02 145.366 1824.83 149.199 1880.38 89.119Z" fill="#473B1E"/>
<path d="M2190.82 201.474C2190.82 201.474 2179.62 197.676 2167.58 206.897C2155.53 216.121 2156.86 248.531 2156.86 248.531C2156.86 248.531 2099.36 284.306 2105.42 132.925C2111.87 -28.1196 2153.39 145.844 2153.39 145.844L2190.82 201.474Z" fill="#473B1E"/>
<path d="M4900.59 1599.05L4878.3 1647.01C4876.47 1650.98 4878.3 1655.63 4882.41 1657.4L4998.8 1707.74C5007.23 1711.39 5015.37 1702.16 5010.29 1694.72L4965.25 1627.02C4965.25 1627.02 4929.64 1633.3 4900.59 1599.05Z" fill="url(#paint54_linear_2_446)"/>
<path d="M4749.75 1593.34L4727.47 1641.3C4725.63 1645.27 4727.46 1649.92 4731.57 1651.69L4847.97 1702.03C4856.4 1705.68 4864.53 1696.45 4859.45 1689.01L4814.41 1621.31C4814.41 1621.31 4778.8 1627.6 4749.75 1593.34Z" fill="url(#paint55_linear_2_446)"/>
<path d="M4613.71 40.2992C4613.71 40.2992 4740.56 19.6601 4783.12 156.396L4730.59 232.264C4730.59 232.264 4620.41 191.425 4619.97 187.425C4619.54 183.423 4613.71 40.2992 4613.71 40.2992Z" fill="#002A24"/>
<path d="M4409.53 101.896C4409.53 101.896 4372.53 155.582 4353.67 176.867C4306.19 230.416 4300.07 213.618 4270.56 259.673C4238.71 309.389 4270.94 340.516 4289.25 354.841C4307.57 369.17 4276.92 422.168 4311.05 451.876C4355.73 490.763 4397.05 454.092 4427.79 475.88C4458.52 497.664 4465.25 529.962 4538.09 523.859C4610.95 517.758 4610.23 287.949 4610.23 287.949C4610.23 287.949 4550.6 166.113 4548.24 165.105C4545.87 164.1 4409.53 101.896 4409.53 101.896Z" fill="#002A24"/>
<path d="M4783.12 156.395C4783.12 156.395 4787.47 198.566 4801.93 222.857C4838.29 283.97 4857.89 263.952 4878.03 314.494C4899.77 369.042 4862.12 393.864 4841.37 404.667C4820.61 415.47 4840.55 473.032 4801.3 496.12C4749.92 526.34 4716.36 482.908 4681.97 498.819C4647.59 514.73 4634.77 545.262 4564.36 526.231C4493.94 507.202 4538.81 281.507 4538.81 281.507C4538.81 281.507 4620.83 172.449 4623.34 171.887C4625.86 171.321 4783.12 156.395 4783.12 156.395Z" fill="#002A24"/>
<path d="M4599.07 428.541C4599.07 428.541 4477.49 406.963 4421.57 408.783C4365.66 410.603 4455.46 550.859 4455.46 550.859L4546.77 552.817C4546.77 552.817 4602.75 492.496 4599.07 485.477C4595.39 478.461 4599.24 432.44 4599.24 432.44L4599.07 428.541Z" fill="#FFC0BB"/>
<path d="M4490.66 316.607L4458.59 410.518C4458.59 410.518 4486.51 466.214 4572.02 442.19C4572.02 442.19 4562.26 422.74 4575.35 382.688C4588.72 341.757 4490.66 316.607 4490.66 316.607Z" fill="#FFC0BB"/>
<path opacity="0.6" d="M4490.66 316.607L4475.61 360.478C4484.57 392.541 4513.67 414.374 4568.55 421.152C4568.52 411.621 4570.06 398.862 4575.34 382.685C4588.72 341.757 4490.66 316.607 4490.66 316.607Z" fill="#FC8D84"/>
<path d="M4686.28 247.848C4679.35 263.098 4683.97 279.801 4696.62 285.158C4709.26 290.515 4725.14 282.494 4732.08 267.244C4739.02 251.993 4734.39 235.29 4721.75 229.933C4709.1 224.576 4693.23 232.597 4686.28 247.848Z" fill="#F99893"/>
<path d="M4689.82 317.1C4698.03 297.463 4702.47 276.503 4704.83 258.186C4705.33 254.256 4706.07 250.363 4706.89 246.481C4710.18 230.806 4710.58 214.109 4707.22 196.834C4696.41 141.271 4648.13 98.3732 4589.82 92.6945C4511.28 85.0407 4444.57 143.3 4442.52 217.41C4434.29 212.719 4424.94 211.442 4416.59 214.786C4400.56 221.209 4394.31 242.083 4402.62 261.416C4410.94 280.749 4430.68 291.213 4446.71 284.797C4448.94 283.907 4450.95 282.71 4452.79 281.303C4457.71 344.529 4509.91 394.581 4574.17 395.204C4622.41 395.68 4669.89 367.459 4689.82 317.1Z" fill="#FFC0BB"/>
<path d="M4605.97 220.344C4603.44 227.329 4602.12 234.621 4601.69 242.057C4601.49 245.789 4601.58 249.542 4602.1 253.383C4602.71 257.204 4603.63 261.143 4606.14 264.953C4609.06 268.57 4610.59 269.764 4611.03 272.664C4611.56 275.156 4610.35 277.86 4608.47 280.278C4604.42 285.147 4597.32 287.828 4589.9 289.284C4597.28 290.688 4606.05 289.795 4612.59 284.047C4615.78 281.268 4618.25 276.856 4617.88 272.047C4617.52 267.054 4615.2 264.832 4612.19 261.045C4610.6 258.746 4609.63 255.513 4608.87 252.255C4608.04 248.965 4607.8 245.453 4607.34 241.957C4606.71 234.9 4606.43 227.702 4605.97 220.344Z" fill="#F99893"/>
<path d="M4561.95 229.888C4563.07 237.508 4556.3 243.896 4548.42 242.632C4543.53 241.849 4539.57 237.941 4538.88 233.199C4537.77 225.585 4544.53 219.203 4552.4 220.46C4557.29 221.241 4561.25 225.148 4561.95 229.888Z" fill="#333333"/>
<path d="M4661.98 237.199C4663.1 244.802 4656.35 251.181 4648.49 249.949C4643.6 249.183 4639.62 245.278 4638.91 240.541C4637.77 232.916 4644.54 226.511 4652.42 227.771C4657.32 228.549 4661.28 232.459 4661.98 237.199Z" fill="#333333"/>
<path opacity="0.3" d="M4560.03 317.177C4560.03 317.177 4576.7 311.415 4592.38 321.331C4592.38 321.331 4609.34 311.091 4622.71 320.872C4622.71 320.872 4616.5 345.238 4588.64 343.595C4560.79 341.95 4560.03 317.177 4560.03 317.177Z" fill="#F99893"/>
<path d="M4545.43 308.446C4548.59 310.906 4551.87 313.177 4555.32 315.161C4558.73 317.208 4562.26 319.045 4565.92 320.587C4573.21 323.676 4580.91 325.849 4588.78 326.487C4596.64 327.161 4604.59 326.223 4612.18 323.986C4619.76 321.646 4626.91 317.992 4633.65 313.645C4630.64 316.272 4627.41 318.684 4623.96 320.814C4620.51 322.95 4616.77 324.626 4612.96 326.134C4609.09 327.529 4605.06 328.545 4600.95 329.111C4596.83 329.627 4592.66 329.728 4588.52 329.427C4580.24 328.686 4572.18 326.306 4564.9 322.625C4557.63 318.951 4550.9 314.268 4545.43 308.446Z" fill="#F99893"/>
<path d="M4575.73 205.761C4569.73 204.202 4564.1 203.054 4558.55 202.422C4553 201.799 4547.59 201.848 4542.35 202.652C4537.14 203.516 4531.92 204.785 4526.94 207.185C4523.12 208.483 4513.89 214.167 4511.49 215.284C4514.16 210.09 4518.14 204.452 4523.19 201.237C4528.17 197.298 4534.53 194.909 4540.99 193.898C4547.49 192.911 4554.2 193.594 4560.22 195.676C4566.21 197.8 4571.73 201.082 4575.73 205.761Z" fill="#002A24"/>
<path d="M4627.26 209.519C4631.81 205.342 4637.71 202.735 4643.92 201.326C4650.16 199.965 4656.9 200.074 4663.24 201.819C4669.52 203.582 4675.54 206.697 4679.97 211.193C4684.59 214.98 4687.82 221.023 4689.82 226.512C4687.55 225.103 4679.12 218.39 4675.5 216.659C4670.87 213.694 4665.84 211.819 4660.78 210.352C4655.68 208.937 4650.32 208.253 4644.73 208.222C4639.14 208.196 4633.41 208.678 4627.26 209.519Z" fill="#002A24"/>
<path d="M4387.58 1002.34C4387.58 1002.34 4351.72 1165.13 4514.42 1203.78C4677.12 1242.44 4882.44 1246.37 4882.44 1246.37L4886.24 1625.58L4971.88 1635.04C4971.88 1635.04 5227.42 1124.04 4926.57 1023.4L4651.31 1007.94L4538.51 993.234C4538.51 993.234 4425.64 958.921 4423.95 964.045C4422.26 969.167 4390.11 1005.1 4387.58 1002.34Z" fill="url(#paint56_linear_2_446)"/>
<path d="M4236.29 993.985C4236.29 993.985 4200.43 1156.78 4363.13 1195.44C4525.82 1234.09 4731.14 1238.02 4731.14 1238.02L4734.94 1617.23L4820.58 1626.69C4820.58 1626.69 5076.12 1115.69 4775.28 1015.05L4500.01 999.595L4387.22 984.884C4387.22 984.884 4274.34 950.571 4272.65 955.696C4270.96 960.818 4238.82 996.753 4236.29 993.985Z" fill="#847D3D"/>
<path d="M4780.35 1248.9C4775.66 1248.08 4770.97 1247.31 4766.34 1246.26C4761.71 1245.23 4757.14 1244.02 4752.61 1242.7C4750.35 1242.02 4748.06 1241.28 4745.83 1240.49C4748.17 1240.01 4750.45 1239.36 4752.71 1238.58C4757.18 1237.05 4761.36 1234.86 4765.28 1232.37C4769.07 1229.68 4772.66 1226.77 4775.79 1223.44C4778.95 1220.14 4781.65 1216.48 4784.03 1212.69L4779.38 1217.57C4777.7 1219.08 4776.15 1220.68 4774.41 1222.08C4771.09 1225.06 4767.38 1227.56 4763.58 1229.83C4759.75 1232.06 4755.7 1233.87 4751.52 1235.29C4747.36 1236.64 4742.87 1237.63 4738.73 1237.78L4731.12 1238.05L4737.87 1241.07C4742.45 1243.13 4747.02 1244.48 4751.7 1245.74C4756.36 1247 4761.1 1247.89 4765.85 1248.67C4770.6 1249.41 4775.36 1250.06 4780.16 1250.4C4784.94 1250.74 4789.74 1250.97 4794.53 1250.95C4789.78 1250.28 4785.05 1249.72 4780.35 1248.9Z" fill="white"/>
<path d="M4737.25 657.078C4737.25 657.078 4748.32 923.069 4779.33 964.729L4608.81 927.341V637.851L4737.25 657.078Z" fill="#FFC0BB"/>
<path d="M4664.6 693.398C4664.6 693.398 4640.87 760.351 4636.55 795.907C4625.83 884.217 4637.48 946.513 4656.42 996.777C4683 1067.28 4465.98 1041.64 4461.55 1039.51C4457.12 1037.37 4271.11 967.936 4271.11 967.936L4235.68 868.591V693.398L4245.64 613.282L4664.6 693.398Z" fill="#B7D972"/>
<path d="M4144.88 613.282L4281.44 658.146C4281.44 658.146 4257.82 868.947 4265.2 898.856C4271.51 924.422 4370.54 975.254 4433.3 1003.71C4443.4 1008.3 4454.53 1010.25 4465.66 1009.37C4501.4 1006.54 4564.77 1001.2 4574.71 1000.54C4590.33 999.502 4633.29 1000.57 4634.66 1005.85C4635.94 1010.76 4601.11 1005.35 4578.53 1009.85C4575.35 1010.48 4577.05 1014.57 4577.78 1014.6C4589.77 1015.03 4620.61 1016.31 4630.76 1019.57C4643.21 1023.57 4599.2 1020.39 4575.42 1024.61C4573.76 1024.91 4572.42 1029.47 4573.63 1030.62C4576.47 1033.32 4586.82 1035.67 4615.22 1038.47C4662.6 1043.15 4616.25 1048.81 4616.25 1048.81C4616.25 1048.81 4611.99 1047.64 4571.27 1042.26C4569.78 1042.07 4568.1 1046.14 4570.36 1048.05C4574.28 1051.38 4583.39 1057.94 4595.64 1061.42C4610.89 1065.76 4599.8 1069.6 4599.8 1069.6C4599.8 1069.6 4570.93 1061.3 4554.74 1060.12C4542.62 1059.25 4485.5 1063.73 4462.07 1065.03L4460.28 1061.16C4428.52 1060.26 4175.17 1053.92 4150.79 902.416C4125.69 746.453 4144.88 613.282 4144.88 613.282Z" fill="#FFC0BB"/>
<path d="M5137.48 764.248H4702.31L4578.92 1054.81H4369.3C4363.43 1054.81 4358.68 1059.4 4358.68 1065.05C4358.68 1070.71 4363.43 1075.29 4369.3 1075.29H4992.86L5137.48 764.248Z" fill="url(#paint57_linear_2_446)"/>
<path d="M4885.3 930.054C4882.73 942.439 4871.54 950.719 4860.31 948.551C4849.08 946.384 4842.06 934.584 4844.62 922.202C4847.19 909.817 4858.38 901.537 4869.61 903.705C4880.84 905.872 4887.87 917.672 4885.3 930.054Z" fill="#DAEEF7"/>
<path d="M4599.07 428.539C4599.07 428.539 4516.41 521.617 4421.57 408.781C4421.57 408.781 4317.96 400.637 4241.56 452.979C4165.16 505.322 4119.42 622.892 4119.42 622.892C4119.42 622.892 4257.82 690.192 4292.14 693.396H4676.35C4676.35 693.396 4735.04 689.124 4791.5 661.348C4791.5 661.354 4781.76 474.474 4599.07 428.539Z" fill="#B7D972"/>
<path d="M4342.66 587.336C4339.1 598.878 4335.89 610.51 4332.7 622.158C4326.74 645.03 4321.27 666.812 4317.25 690.21C4309.77 690.54 4301.32 689.49 4293.92 688.462C4254.02 681.612 4227.81 670.834 4192.28 656.795C4139.05 633.406 4146.23 635.668 4119.42 622.893C4150.59 641.91 4167.37 650.485 4190.06 661.432C4221.18 675.353 4250.93 688.232 4292.8 695.346C4311.11 697.755 4316.38 697.224 4323.32 696.469C4326.02 679.309 4329.12 661.742 4337.61 623.269L4345.52 588.037L4353.67 552.813C4349.71 564.24 4346.21 575.79 4342.66 587.336Z" fill="#847D3D"/>
<path d="M4645.78 525.78C4651.2 539.451 4656.12 553.177 4660.52 567.015C4664.83 580.87 4668.64 594.834 4671.2 608.985C4673.61 621 4675.26 636.864 4674.7 651.681C4674.15 665.953 4652.23 733.095 4645.78 746.384C4654.88 734.594 4678.75 666.886 4680.36 652.123C4682.21 637.292 4680.94 622.318 4678.35 607.753C4675.45 593.074 4671.63 579.409 4665.86 565.246C4660.39 551.532 4653.91 538.179 4645.78 525.78Z" fill="#847D3D"/>
<path d="M4442.52 217.41C4442.52 217.41 4584.48 184.371 4652.29 91.3099C4652.29 91.3099 4653.47 6.56311 4523.15 25.7868C4396.53 44.4679 4366.89 163.35 4442.52 217.41Z" fill="#002A24"/>
<defs>
<linearGradient id="paint0_linear_2_446" x1="2471.65" y1="20.9041" x2="2624.12" y2="2407.31" gradientUnits="userSpaceOnUse">
<stop stop-color="#53CD9F"/>
<stop offset="1" stop-color="#0D7A5C"/>
</linearGradient>
<linearGradient id="paint1_linear_2_446" x1="1241.96" y1="373.871" x2="1954.48" y2="2954.76" gradientUnits="userSpaceOnUse">
<stop stop-color="#FB9A2B"/>
<stop offset="1" stop-color="#E65925"/>
</linearGradient>
<linearGradient id="paint2_linear_2_446" x1="108.834" y1="686.7" x2="821.36" y2="3267.58" gradientUnits="userSpaceOnUse">
<stop stop-color="#FB9A2B"/>
<stop offset="1" stop-color="#E65925"/>
</linearGradient>
<linearGradient id="paint3_linear_2_446" x1="4489.73" y1="-522.762" x2="5202.26" y2="2058.13" gradientUnits="userSpaceOnUse">
<stop stop-color="#FB9A2B"/>
<stop offset="1" stop-color="#E65925"/>
</linearGradient>
<linearGradient id="paint4_linear_2_446" x1="-11.8814" y1="179.586" x2="140.594" y2="2565.99" gradientUnits="userSpaceOnUse">
<stop stop-color="#53CD9F"/>
<stop offset="1" stop-color="#0D7A5C"/>
</linearGradient>
<linearGradient id="paint5_linear_2_446" x1="5558.89" y1="-176.349" x2="5711.36" y2="2210.06" gradientUnits="userSpaceOnUse">
<stop stop-color="#53CD9F"/>
<stop offset="1" stop-color="#0D7A5C"/>
</linearGradient>
<linearGradient id="paint6_linear_2_446" x1="3255.91" y1="-182.135" x2="3968.44" y2="2398.76" gradientUnits="userSpaceOnUse">
<stop stop-color="#FB9A2B"/>
<stop offset="1" stop-color="#E65925"/>
</linearGradient>
<linearGradient id="paint7_linear_2_446" x1="969.355" y1="2640.92" x2="5107.01" y2="2640.92" gradientUnits="userSpaceOnUse">
<stop stop-color="#00503E"/>
<stop offset="1" stop-color="#023222"/>
</linearGradient>
<linearGradient id="paint8_linear_2_446" x1="1522.37" y1="3423.31" x2="2272.29" y2="3678.19" gradientUnits="userSpaceOnUse">
<stop stop-color="#53CD9F"/>
<stop offset="1" stop-color="#0D7A5C"/>
</linearGradient>
<linearGradient id="paint9_linear_2_446" x1="2560.43" y1="3474.23" x2="1811.34" y2="3508.17" gradientUnits="userSpaceOnUse">
<stop stop-color="#53CD9F"/>
<stop offset="1" stop-color="#0D7A5C"/>
</linearGradient>
<linearGradient id="paint10_linear_2_446" x1="1461.71" y1="3601.78" x2="2211.64" y2="3856.67" gradientUnits="userSpaceOnUse">
<stop stop-color="#53CD9F"/>
<stop offset="1" stop-color="#0D7A5C"/>
</linearGradient>
<linearGradient id="paint11_linear_2_446" x1="2570.54" y1="3697.49" x2="1821.45" y2="3731.43" gradientUnits="userSpaceOnUse">
<stop stop-color="#53CD9F"/>
<stop offset="1" stop-color="#0D7A5C"/>
</linearGradient>
<linearGradient id="paint12_linear_2_446" x1="1723.84" y1="2552.82" x2="3007.79" y2="2886.58" gradientUnits="userSpaceOnUse">
<stop stop-color="#C9CD55"/>
<stop offset="0.5065" stop-color="#659C52"/>
<stop offset="1" stop-color="#287F50"/>
</linearGradient>
<linearGradient id="paint13_linear_2_446" x1="2283.09" y1="1891.43" x2="2130.48" y2="3077.8" gradientUnits="userSpaceOnUse">
<stop stop-color="#C9CD55"/>
<stop offset="0.5065" stop-color="#659C52"/>
<stop offset="1" stop-color="#287F50"/>
</linearGradient>
<linearGradient id="paint14_linear_2_446" x1="2275.36" y1="1890.43" x2="2122.75" y2="3076.81" gradientUnits="userSpaceOnUse">
<stop stop-color="#C9CD55"/>
<stop offset="0.5065" stop-color="#659C52"/>
<stop offset="1" stop-color="#287F50"/>
</linearGradient>
<linearGradient id="paint15_linear_2_446" x1="2315.1" y1="1895.55" x2="2162.49" y2="3081.92" gradientUnits="userSpaceOnUse">
<stop stop-color="#C9CD55"/>
<stop offset="0.5065" stop-color="#659C52"/>
<stop offset="1" stop-color="#287F50"/>
</linearGradient>
<linearGradient id="paint16_linear_2_446" x1="2329.77" y1="1897.43" x2="2177.15" y2="3083.81" gradientUnits="userSpaceOnUse">
<stop stop-color="#C9CD55"/>
<stop offset="0.5065" stop-color="#659C52"/>
<stop offset="1" stop-color="#287F50"/>
</linearGradient>
<linearGradient id="paint17_linear_2_446" x1="2359.09" y1="1901.2" x2="2206.48" y2="3087.57" gradientUnits="userSpaceOnUse">
<stop stop-color="#C9CD55"/>
<stop offset="0.5065" stop-color="#659C52"/>
<stop offset="1" stop-color="#287F50"/>
</linearGradient>
<linearGradient id="paint18_linear_2_446" x1="2373.75" y1="1903.09" x2="2221.14" y2="3089.46" gradientUnits="userSpaceOnUse">
<stop stop-color="#C9CD55"/>
<stop offset="0.5065" stop-color="#659C52"/>
<stop offset="1" stop-color="#287F50"/>
</linearGradient>
<linearGradient id="paint19_linear_2_446" x1="2388.41" y1="1904.98" x2="2235.8" y2="3091.35" gradientUnits="userSpaceOnUse">
<stop stop-color="#C9CD55"/>
<stop offset="0.5065" stop-color="#659C52"/>
<stop offset="1" stop-color="#287F50"/>
</linearGradient>
<linearGradient id="paint20_linear_2_446" x1="2452.91" y1="1913.27" x2="2300.29" y2="3099.64" gradientUnits="userSpaceOnUse">
<stop stop-color="#C9CD55"/>
<stop offset="0.5065" stop-color="#659C52"/>
<stop offset="1" stop-color="#287F50"/>
</linearGradient>
<linearGradient id="paint21_linear_2_446" x1="2468.11" y1="1915.23" x2="2315.5" y2="3101.6" gradientUnits="userSpaceOnUse">
<stop stop-color="#C9CD55"/>
<stop offset="0.5065" stop-color="#659C52"/>
<stop offset="1" stop-color="#287F50"/>
</linearGradient>
<linearGradient id="paint22_linear_2_446" x1="2483.32" y1="1917.18" x2="2330.7" y2="3103.56" gradientUnits="userSpaceOnUse">
<stop stop-color="#C9CD55"/>
<stop offset="0.5065" stop-color="#659C52"/>
<stop offset="1" stop-color="#287F50"/>
</linearGradient>
<linearGradient id="paint23_linear_2_446" x1="2498.52" y1="1919.14" x2="2345.91" y2="3105.51" gradientUnits="userSpaceOnUse">
<stop stop-color="#C9CD55"/>
<stop offset="0.5065" stop-color="#659C52"/>
<stop offset="1" stop-color="#287F50"/>
</linearGradient>
<linearGradient id="paint24_linear_2_446" x1="2812.96" y1="2280.28" x2="3525.81" y2="1841.13" gradientUnits="userSpaceOnUse">
<stop stop-color="#53CD9F"/>
<stop offset="1" stop-color="#0D7A5C"/>
</linearGradient>
<linearGradient id="paint25_linear_2_446" x1="3432.16" y1="1854.56" x2="2979.32" y2="2199.87" gradientUnits="userSpaceOnUse">
<stop stop-color="#53CD9F"/>
<stop offset="1" stop-color="#0D7A5C"/>
</linearGradient>
<linearGradient id="paint26_linear_2_446" x1="2915.88" y1="2447.34" x2="3628.72" y2="2008.18" gradientUnits="userSpaceOnUse">
<stop stop-color="#53CD9F"/>
<stop offset="1" stop-color="#0D7A5C"/>
</linearGradient>
<linearGradient id="paint27_linear_2_446" x1="3573.11" y1="2039.4" x2="3120.27" y2="2384.71" gradientUnits="userSpaceOnUse">
<stop stop-color="#53CD9F"/>
<stop offset="1" stop-color="#0D7A5C"/>
</linearGradient>
<linearGradient id="paint28_linear_2_446" x1="2473.22" y1="2636.74" x2="4074.12" y2="2636.74" gradientUnits="userSpaceOnUse">
<stop stop-color="#FB9A2B"/>
<stop offset="1" stop-color="#E65925"/>
</linearGradient>
<linearGradient id="paint29_linear_2_446" x1="3074.59" y1="2636.74" x2="4095.43" y2="2636.74" gradientUnits="userSpaceOnUse">
<stop stop-color="#FB9A2B"/>
<stop offset="1" stop-color="#E65925"/>
</linearGradient>
<linearGradient id="paint30_linear_2_446" x1="2246.18" y1="3283.59" x2="4058.08" y2="3283.59" gradientUnits="userSpaceOnUse">
<stop stop-color="#00503E"/>
<stop offset="1" stop-color="#023222"/>
</linearGradient>
<linearGradient id="paint31_linear_2_446" x1="2926.81" y1="3283.6" x2="4082.21" y2="3283.6" gradientUnits="userSpaceOnUse">
<stop stop-color="#00503E"/>
<stop offset="1" stop-color="#023222"/>
</linearGradient>
<linearGradient id="paint32_linear_2_446" x1="2128.07" y1="2940.55" x2="3940.69" y2="2940.55" gradientUnits="userSpaceOnUse">
<stop stop-color="#53CD9F"/>
<stop offset="1" stop-color="#0D7A5C"/>
</linearGradient>
<linearGradient id="paint33_linear_2_446" x1="2103.95" y1="2940.55" x2="3259.8" y2="2940.55" gradientUnits="userSpaceOnUse">
<stop stop-color="#53CD9F"/>
<stop offset="1" stop-color="#0D7A5C"/>
</linearGradient>
<linearGradient id="paint34_linear_2_446" x1="2000.66" y1="3645.22" x2="3954.7" y2="3645.22" gradientUnits="userSpaceOnUse">
<stop stop-color="#C9CD55"/>
<stop offset="0.5065" stop-color="#659C52"/>
<stop offset="1" stop-color="#287F50"/>
</linearGradient>
<linearGradient id="paint35_linear_2_446" x1="1974.65" y1="3645.22" x2="3220.68" y2="3645.22" gradientUnits="userSpaceOnUse">
<stop stop-color="#C9CD55"/>
<stop offset="0.5065" stop-color="#659C52"/>
<stop offset="1" stop-color="#287F50"/>
</linearGradient>
<linearGradient id="paint36_linear_2_446" x1="3755.28" y1="3418.75" x2="3474.3" y2="3824.59" gradientUnits="userSpaceOnUse">
<stop stop-color="#53CD9F"/>
<stop offset="1" stop-color="#0D7A5C"/>
</linearGradient>
<linearGradient id="paint37_linear_2_446" x1="3437.42" y1="3771.56" x2="4494.7" y2="3771.56" gradientUnits="userSpaceOnUse">
<stop stop-color="#00503E"/>
<stop offset="1" stop-color="#023222"/>
</linearGradient>
<linearGradient id="paint38_linear_2_446" x1="3414.69" y1="3399.12" x2="4489.28" y2="3399.12" gradientUnits="userSpaceOnUse">
<stop stop-color="#00503E"/>
<stop offset="1" stop-color="#023222"/>
</linearGradient>
<linearGradient id="paint39_linear_2_446" x1="1872.13" y1="2019.62" x2="1821.31" y2="2907.22" gradientUnits="userSpaceOnUse">
<stop stop-color="#C9CD55"/>
<stop offset="0.5065" stop-color="#659C52"/>
<stop offset="1" stop-color="#287F50"/>
</linearGradient>
<linearGradient id="paint40_linear_2_446" x1="1227.96" y1="1577.77" x2="4638.6" y2="1577.77" gradientUnits="userSpaceOnUse">
<stop stop-color="#FB9A2B"/>
<stop offset="1" stop-color="#E65925"/>
</linearGradient>
<linearGradient id="paint41_linear_2_446" x1="748.725" y1="2451.1" x2="827.071" y2="2451.1" gradientUnits="userSpaceOnUse">
<stop stop-color="#FB9A2B"/>
<stop offset="1" stop-color="#E65925"/>
</linearGradient>
<linearGradient id="paint42_linear_2_446" x1="883.985" y1="2450.48" x2="962.39" y2="2450.48" gradientUnits="userSpaceOnUse">
<stop stop-color="#FB9A2B"/>
<stop offset="1" stop-color="#E65925"/>
</linearGradient>
<linearGradient id="paint43_linear_2_446" x1="1182.43" y1="2577.15" x2="688.793" y2="3262.95" gradientUnits="userSpaceOnUse">
<stop stop-color="#C9CD55"/>
<stop offset="0.5065" stop-color="#659C52"/>
<stop offset="1" stop-color="#287F50"/>
</linearGradient>
<linearGradient id="paint44_linear_2_446" x1="885.441" y1="3497.06" x2="828.234" y2="2950.23" gradientUnits="userSpaceOnUse">
<stop stop-color="#C9CD55"/>
<stop offset="0.5065" stop-color="#659C52"/>
<stop offset="1" stop-color="#287F50"/>
</linearGradient>
<linearGradient id="paint45_linear_2_446" x1="749.773" y1="3156.2" x2="798.834" y2="3156.2" gradientUnits="userSpaceOnUse">
<stop stop-color="#FB9A2B"/>
<stop offset="1" stop-color="#E65925"/>
</linearGradient>
<linearGradient id="paint46_linear_2_446" x1="502.621" y1="3285.28" x2="827.541" y2="3285.28" gradientUnits="userSpaceOnUse">
<stop stop-color="#FB9A2B"/>
<stop offset="1" stop-color="#E65925"/>
</linearGradient>
<linearGradient id="paint47_linear_2_446" x1="474.073" y1="3267.68" x2="796.172" y2="3267.68" gradientUnits="userSpaceOnUse">
<stop stop-color="#FB9A2B"/>
<stop offset="1" stop-color="#E65925"/>
</linearGradient>
<linearGradient id="paint48_linear_2_446" x1="970.666" y1="2424.73" x2="477.031" y2="3110.53" gradientUnits="userSpaceOnUse">
<stop stop-color="#C9CD55"/>
<stop offset="0.5065" stop-color="#659C52"/>
<stop offset="1" stop-color="#287F50"/>
</linearGradient>
<linearGradient id="paint49_linear_2_446" x1="552.782" y1="4059.53" x2="730.771" y2="4059.53" gradientUnits="userSpaceOnUse">
<stop stop-color="#FB9A2B"/>
<stop offset="1" stop-color="#E65925"/>
</linearGradient>
<linearGradient id="paint50_linear_2_446" x1="1006.27" y1="4059.53" x2="1184.26" y2="4059.53" gradientUnits="userSpaceOnUse">
<stop stop-color="#FB9A2B"/>
<stop offset="1" stop-color="#E65925"/>
</linearGradient>
<linearGradient id="paint51_linear_2_446" x1="679.817" y1="2350.62" x2="1026.12" y2="2350.62" gradientUnits="userSpaceOnUse">
<stop stop-color="#FB9A2B"/>
<stop offset="1" stop-color="#E65925"/>
</linearGradient>
<linearGradient id="paint52_linear_2_446" x1="23.9496" y1="4131.28" x2="5658.36" y2="4131.28" gradientUnits="userSpaceOnUse">
<stop stop-color="#53CD9F"/>
<stop offset="1" stop-color="#0D7A5C"/>
</linearGradient>
<linearGradient id="paint53_linear_2_446" x1="1649.81" y1="716.983" x2="2415.72" y2="716.983" gradientUnits="userSpaceOnUse">
<stop stop-color="#53CD9F"/>
<stop offset="1" stop-color="#0D7A5C"/>
</linearGradient>
<linearGradient id="paint54_linear_2_446" x1="4877.59" y1="1653.81" x2="5011.86" y2="1653.81" gradientUnits="userSpaceOnUse">
<stop stop-color="#FB9A2B"/>
<stop offset="1" stop-color="#E65925"/>
</linearGradient>
<linearGradient id="paint55_linear_2_446" x1="4726.75" y1="1648.1" x2="4861.02" y2="1648.1" gradientUnits="userSpaceOnUse">
<stop stop-color="#FB9A2B"/>
<stop offset="1" stop-color="#E65925"/>
</linearGradient>
<linearGradient id="paint56_linear_2_446" x1="5154.21" y1="1547.44" x2="4575.19" y2="950.004" gradientUnits="userSpaceOnUse">
<stop stop-color="#C7A44F"/>
<stop offset="1" stop-color="#609A3F"/>
</linearGradient>
<linearGradient id="paint57_linear_2_446" x1="4358.68" y1="919.77" x2="5137.48" y2="919.77" gradientUnits="userSpaceOnUse">
<stop stop-color="#00503E"/>
<stop offset="1" stop-color="#023222"/>
</linearGradient>
</defs>
</svg>
